# xmcd
#
# Track frame offsets: 
#        150
#        30987
#        63921
#        89987
#        116714
#        149114
#        171769
#        218123
#
# Disc length: 3268 seconds
#
# Revision: 0
# Processed by: cddbd v1.5.2PL0 Copyright (c) Steve Scherf et al.
# Submitted via: ExactAudioCopy v1.3
#
DISCID=780cc208
DTITLE=Tedeschi Trucks Band - Crossroads Guitar Festival 2010
DYEAR=2010
DGENRE=Jam
TTITLE0=Love Has Something Else To Say
TTITLE1=Midnight in Harlem
TTITLE2=Comin' Home (with Warren Haynes)
TTITLE3=Soulshine (with Warren Haynes)
TTITLE4=Three Hundred Pounds of  Joy (with David Hidalgo and César Rosas
TTITLE4=)
TTITLE5=Don't Keep Me Wonderin' (with Warren Haynes, David Hidalgo and C
TTITLE5=ésar Rosas)
TTITLE6=Red House (with Johnny Winter, Warren Haynes, David Hidalgo and 
TTITLE6=César Rosas)
TTITLE7=Space Captain (with Chris Stainton, Warren Haynes, David Hidal
TTITLE7=go and César Rosas)
EXTD=
EXTT0=
EXTT1=
EXTT2=
EXTT3=
EXTT4=
EXTT5=
EXTT6=
EXTT7=
PLAYORDER=
